<?xml version="1.0" encoding="UTF-8" standalone="no"?>
<svg
   xmlns:dc="http://purl.org/dc/elements/1.1/"
   xmlns:cc="http://creativecommons.org/ns#"
   xmlns:rdf="http://www.w3.org/1999/02/22-rdf-syntax-ns#"
   xmlns:svg="http://www.w3.org/2000/svg"
   xmlns="http://www.w3.org/2000/svg"
   xmlns:sodipodi="http://sodipodi.sourceforge.net/DTD/sodipodi-0.dtd"
   xmlns:inkscape="http://www.inkscape.org/namespaces/inkscape"
   id="svg4330"
   version="1.1"
   viewBox="0 0 291.39963 238.60799"
   height="238.60799mm"
   width="291.39963mm"
   sodipodi:docname="intro1.svg"
   inkscape:version="0.92.4 (5da689c313, 2019-01-14)">
  <sodipodi:namedview
     pagecolor="#ffffff"
     bordercolor="#666666"
     borderopacity="1"
     objecttolerance="10"
     gridtolerance="10"
     guidetolerance="10"
     inkscape:pageopacity="0"
     inkscape:pageshadow="2"
     inkscape:window-width="1680"
     inkscape:window-height="987"
     id="namedview40"
     showgrid="false"
     inkscape:zoom="0.61942624"
     inkscape:cx="845.36911"
     inkscape:cy="432.70798"
     inkscape:window-x="-8"
     inkscape:window-y="-8"
     inkscape:window-maximized="1"
     inkscape:current-layer="svg4330" />
  <defs
     id="defs4324" />
  <metadata
     id="metadata4327">
    <rdf:RDF>
      <cc:Work
         rdf:about="">
        <dc:format>image/svg+xml</dc:format>
        <dc:type
           rdf:resource="http://purl.org/dc/dcmitype/StillImage" />
        <dc:title />
      </cc:Work>
    </rdf:RDF>
  </metadata>
  <g
     transform="translate(-0.19900041,-37.844826)"
     id="layer1">
    <g
       transform="translate(0.424666,799.2643)"
       id="g964">
      <path
         style="fill:#ffffff;fill-opacity:1;stroke:none;stroke-width:0.26458332px;stroke-linecap:butt;stroke-linejoin:miter;stroke-opacity:1"
         d="m 238.125,-708.41636 -79.37499,66.14548 52.91667,52.91667 79.37499,-79.375 z"
         id="path908" />
      <path
         style="fill:none;stroke:#ffffff;stroke-width:0.26458332px;stroke-linecap:butt;stroke-linejoin:miter;stroke-opacity:1"
         d="m 211.66667,-589.35421 v 66.14584 l 79.37499,-105.83334 v -39.6875 l -132.29166,-0.001 v 79.37635 l 79.375,-79.375 v -39.6875"
         id="path929" />
      <path
         style="fill:none;stroke:#ffffff;stroke-width:0.26458332px;stroke-linecap:butt;stroke-linejoin:miter;stroke-opacity:1"
         d="m 158.75,-589.35421 52.91667,66.14584"
         id="path931" />
      <path
         style="fill:#ffffff;fill-opacity:0.32627121;stroke:#ffffff;stroke-width:0.26458332px;stroke-linecap:butt;stroke-linejoin:miter;stroke-opacity:1"
         d="m 132.29167,-589.35421 v 0 -13.22917 l -79.375001,26.45834 26.458333,52.91667"
         id="path935" />
      <path
         style="fill:#c8beb7;fill-opacity:0.29237288;stroke:#ffffff;stroke-width:0.26458332px;stroke-linecap:butt;stroke-linejoin:miter;stroke-opacity:1"
         d="m 132.29167,-602.58338 v -26.45833 H 26.458333 l 26.458336,52.91667"
         id="path937" />
      <path
         style="fill:none;stroke:#fff2f2;stroke-width:0.26458332px;stroke-linecap:butt;stroke-linejoin:miter;stroke-opacity:1"
         d="m 132.29167,-629.04171 v -39.6875 L 0,-681.95837 l 26.458333,52.91666"
         id="path939" />
      <path
         style="fill:none;stroke:#ffffff;stroke-width:0.26458332px;stroke-linecap:butt;stroke-linejoin:miter;stroke-opacity:1"
         d="M 132.29167,-668.72921 H 158.75 l -79.374998,-92.60417"
         id="path941" />
      <path
         style="fill:none;stroke:#ffffff;stroke-width:0.26458332px;stroke-linecap:butt;stroke-linejoin:miter;stroke-opacity:1"
         d="M 211.66667,-668.72921 H 158.75 l 26.45834,39.6875"
         id="path943" />
    </g>
    <path
       id="path2683"
       d="m 132.71634,209.91009 26.45833,2.6e-4 52.91667,66.14549 H 79.799668 Z"
       style="fill:#ffffff;fill-opacity:0.49152545;stroke:#ffffff;stroke-width:0.26458332px;stroke-linecap:butt;stroke-linejoin:miter;stroke-opacity:1" />
  </g>
  <path
     sodipodi:nodetypes="ccccc"
     style="fill:#ffffff;fill-opacity:1;stroke:none;stroke-width:0.26458332px;stroke-linecap:butt;stroke-linejoin:miter;stroke-opacity:1"
     d="m 238.35067,53.00311 -79.37499,66.14548 52.91667,52.91667 79.37499,-79.375 z"
     id="path908-5"
     inkscape:connector-curvature="0" />
  <g
     aria-label="Passez 
par 
porte."
     transform="rotate(-43.497981)"
     style="font-style:normal;font-variant:normal;font-weight:normal;font-stretch:normal;font-size:22.57777786px;line-height:0.80000001;font-family:inconsolata;-inkscape-font-specification:inconsolata;letter-spacing:0px;word-spacing:0px;fill:#e3e2db;fill-opacity:1;stroke:none;stroke-width:0.26458332"
     id="text953-2">
    <path
       d="m 43.527298,207.2039 h 4.515556 q 2.2352,0 3.341511,1.10631 1.106311,1.10631 1.106311,2.86737 0,1.73849 -1.083733,2.82223 -1.083733,1.06115 -3.2512,1.06115 h -3.002845 v 6.20889 h -1.6256 z m 4.447823,6.45724 q 1.490133,0 2.190044,-0.63218 0.699911,-0.65475 0.699911,-1.80622 0,-1.10631 -0.722489,-1.80622 -0.722489,-0.72249 -2.144889,-0.72249 h -2.8448 v 4.96711 z"
       style="font-size:22.57777786px;line-height:0.80000001;fill:#e3e2db;stroke-width:0.26458332"
       id="path4040" />
    <path
       d="m 58.993076,210.72603 q 2.212622,0 3.364089,1.15147 1.174045,1.15146 1.174045,3.90595 v 5.4864 h -1.761067 v -1.58044 q -0.948267,1.8288 -3.522133,1.8288 -1.715912,0 -2.686756,-0.76765 -0.970844,-0.79022 -0.970844,-2.07715 0,-1.08374 0.699911,-1.89654 0.699911,-0.8128 1.873955,-1.24177 1.196622,-0.45156 2.619022,-0.45156 1.286934,0 2.325512,0.13547 -0.135467,-1.73849 -0.925689,-2.4384 -0.767645,-0.72249 -2.302934,-0.72249 -0.767644,0 -1.490133,0.29351 -0.699911,0.29351 -1.286933,0.85795 l -0.790223,-1.03857 q 1.444978,-1.44498 3.680178,-1.44498 z m -0.587022,9.5504 q 1.670756,0 2.6416,-0.97084 0.970844,-0.99343 1.061156,-2.84481 -1.016,-0.15804 -2.190045,-0.15804 -1.715911,0 -2.709333,0.56445 -0.993422,0.56444 -0.993422,1.71591 0,1.69333 2.190044,1.69333 z"
       style="font-size:22.57777786px;line-height:0.80000001;fill:#e3e2db;stroke-width:0.26458332"
       id="path4042" />
    <path
       d="m 71.162499,215.19643 q 1.941688,0.58702 2.731911,1.28693 0.8128,0.67734 0.8128,1.78365 0,1.39982 -1.106311,2.32551 -1.083734,0.90311 -3.160889,0.90311 -2.619023,0 -4.380089,-1.6256 l 0.903111,-1.53529 0.02258,-0.0226 0.02258,0.0226 q 0.699911,0.90311 1.444978,1.35467 0.745067,0.45155 2.032,0.45155 1.2192,0 1.919111,-0.42897 0.699911,-0.45156 0.699911,-1.2192 0,-0.65476 -0.564444,-1.08374 -0.564444,-0.42898 -2.032,-0.90311 -3.883378,-1.10631 -3.883378,-3.20604 0,-1.19663 0.970845,-1.89654 0.993422,-0.69991 2.822222,-0.69991 1.399822,0 2.348089,0.4064 0.970844,0.38382 1.761066,1.2192 l -0.925688,1.12889 -0.02258,0.0226 q -0.474134,-0.72249 -1.354667,-1.12889 -0.857955,-0.42898 -1.761067,-0.42898 -0.970844,0 -1.603022,0.33867 -0.6096,0.33866 -0.6096,0.94826 0,0.56445 0.632178,1.03858 0.632178,0.47414 2.280356,0.94827 z m 2.167466,-1.67076 q 0,-0.11289 0.180622,0.0226 l -0.06773,0.0903 z m 0.248356,-0.0451 q 0.06773,0.0903 0.04515,0.11289 0,0.0226 -0.04515,0 -0.04516,-0.0226 -0.06773,-0.0452 z m -6.344356,4.76391 q 0,0.0903 -0.2032,0 l 0.06773,-0.11289 0.135467,0.0903 z m -0.248355,0.0677 q -0.06773,-0.11289 -0.04516,-0.11289 0.02258,0 0.09031,0.0452 z"
       style="font-size:22.57777786px;line-height:0.80000001;fill:#e3e2db;stroke-width:0.26458332"
       id="path4044" />
    <path
       d="m 82.451389,215.19643 q 1.941689,0.58702 2.731911,1.28693 0.8128,0.67734 0.8128,1.78365 0,1.39982 -1.106311,2.32551 -1.083733,0.90311 -3.160889,0.90311 -2.619022,0 -4.380088,-1.6256 l 0.903111,-1.53529 0.02258,-0.0226 0.02258,0.0226 q 0.699911,0.90311 1.444978,1.35467 0.745067,0.45155 2.032,0.45155 1.2192,0 1.919111,-0.42897 0.699911,-0.45156 0.699911,-1.2192 0,-0.65476 -0.564444,-1.08374 -0.564445,-0.42898 -2.032,-0.90311 -3.883378,-1.10631 -3.883378,-3.20604 0,-1.19663 0.970844,-1.89654 0.993423,-0.69991 2.822223,-0.69991 1.399822,0 2.348089,0.4064 0.970844,0.38382 1.761066,1.2192 l -0.925689,1.12889 -0.02258,0.0226 q -0.474134,-0.72249 -1.354667,-1.12889 -0.857956,-0.42898 -1.761067,-0.42898 -0.970844,0 -1.603022,0.33867 -0.6096,0.33866 -0.6096,0.94826 0,0.56445 0.632178,1.03858 0.632178,0.47414 2.280355,0.94827 z m 2.167467,-1.67076 q 0,-0.11289 0.180622,0.0226 l -0.06773,0.0903 z m 0.248356,-0.0451 q 0.06773,0.0903 0.04516,0.11289 0,0.0226 -0.04516,0 -0.04516,-0.0226 -0.06773,-0.0452 z m -6.344356,4.76391 q 0,0.0903 -0.2032,0 l 0.06773,-0.11289 0.135467,0.0903 z m -0.248356,0.0677 q -0.06773,-0.11289 -0.04516,-0.11289 0.02258,0 0.09031,0.0452 z"
       style="font-size:22.57777786px;line-height:0.80000001;fill:#e3e2db;stroke-width:0.26458332"
       id="path4046" />
    <path
       d="m 93.491921,221.49563 q -2.302934,0 -3.680178,-1.39982 -1.354667,-1.39982 -1.354667,-3.95111 0,-1.69334 0.632178,-2.91254 0.632178,-1.24178 1.693333,-1.87395 1.083734,-0.65476 2.415823,-0.65476 1.873955,0 3.025422,1.24178 1.174044,1.24178 1.174044,3.6576 0,0.24835 -0.04515,0.74507 h -7.337778 q 0.09031,1.89653 1.061156,2.86737 0.970844,0.97085 2.460977,0.97085 1.6256,0 2.664178,-1.15147 l 0.903111,0.88054 q -1.309511,1.58044 -3.612444,1.58044 z m 2.257778,-6.41209 q 0,-1.44498 -0.745067,-2.28036 -0.722489,-0.85795 -1.919111,-0.85795 -1.128889,0 -1.964267,0.79022 -0.835378,0.79022 -1.038578,2.34809 z"
       style="font-size:22.57777786px;line-height:0.80000001;fill:#e3e2db;stroke-width:0.26458332"
       id="path4048" />
    <path
       d="m 99.768541,220.16354 6.389509,-7.78933 h -5.91538 v -1.4224 h 8.01512 v 1.10631 l -6.27663,7.81191 h 5.82507 q 0.36124,0 0.51929,-0.0452 0.18062,-0.0452 0.31609,-0.18062 h 0.15804 v 1.6256 h -9.031109 z"
       style="font-size:22.57777786px;line-height:0.80000001;fill:#e3e2db;stroke-width:0.26458332"
       id="path4050" />
    <path
       d="m 43.549876,229.01403 h 1.648178 v 2.032 q 0.338667,-1.12889 1.174044,-1.69333 0.835378,-0.56445 1.964267,-0.56445 1.174045,0 2.144889,0.6096 0.993422,0.58702 1.580444,1.78365 0.587023,1.19662 0.587023,2.91253 0,1.73849 -0.6096,3.00284 -0.6096,1.24178 -1.6256,1.87396 -0.993423,0.63218 -2.122311,0.63218 -0.925689,0 -1.738489,-0.42898 -0.8128,-0.42898 -1.332089,-1.19662 v 5.12515 h -1.670756 z m 4.4704,9.144 q 1.241778,0 2.077156,-0.92569 0.857955,-0.94827 0.857955,-3.07058 0,-1.91911 -0.745066,-2.93511 -0.745067,-1.03858 -2.122311,-1.03858 -1.286934,0 -2.099734,1.08374 -0.790222,1.06115 -0.790222,3.2512 0.04516,1.78364 0.790222,2.70933 0.745067,0.92569 2.032,0.92569 z"
       style="font-size:22.57777786px;line-height:0.80000001;fill:#e3e2db;stroke-width:0.26458332"
       id="path4052" />
    <path
       d="m 58.993076,228.78825 q 2.212622,0 3.364089,1.15147 1.174045,1.15147 1.174045,3.90595 v 5.4864 h -1.761067 v -1.58044 q -0.948267,1.8288 -3.522133,1.8288 -1.715912,0 -2.686756,-0.76764 -0.970844,-0.79023 -0.970844,-2.07716 0,-1.08373 0.699911,-1.89653 0.699911,-0.8128 1.873955,-1.24178 1.196622,-0.45156 2.619022,-0.45156 1.286934,0 2.325512,0.13547 -0.135467,-1.73849 -0.925689,-2.4384 -0.767645,-0.72249 -2.302934,-0.72249 -0.767644,0 -1.490133,0.29351 -0.699911,0.29351 -1.286933,0.85796 l -0.790223,-1.03858 q 1.444978,-1.44498 3.680178,-1.44498 z m -0.587022,9.5504 q 1.670756,0 2.6416,-0.97084 0.970844,-0.99342 1.061156,-2.8448 -1.016,-0.15805 -2.190045,-0.15805 -1.715911,0 -2.709333,0.56445 -0.993422,0.56444 -0.993422,1.71591 0,1.69333 2.190044,1.69333 z"
       style="font-size:22.57777786px;line-height:0.80000001;fill:#e3e2db;stroke-width:0.26458332"
       id="path4054" />
    <path
       d="m 74.391121,231.15892 v 0.0226 q -0.654756,-0.6096 -1.106311,-0.8128 -0.428978,-0.2032 -1.016,-0.2032 -0.8128,0 -1.535289,0.4064 -0.722489,0.4064 -1.174045,1.24177 -0.451555,0.8128 -0.451555,2.05458 v 5.4864 h -1.648178 v -10.34062 h 1.693333 l -0.04515,1.89653 q 0.428977,-1.016 1.309511,-1.58044 0.903111,-0.56445 1.964267,-0.56445 1.648177,0 2.731911,1.12889 z m 0,0.0226 q 0.158044,0.13546 0.06773,0.11289 -0.06773,-0.0226 -0.112889,-0.0452 z m -0.248356,0.0677 q 0,-0.0677 0.06773,-0.0452 0.06773,0 0.135466,0.0452 l -0.04516,0.11289 -0.158045,-0.0903 z"
       style="font-size:22.57777786px;line-height:0.80000001;fill:#e3e2db;stroke-width:0.26458332"
       id="path4056" />
    <path
       d="m 43.549876,247.07625 h 1.648178 v 2.032 q 0.338667,-1.12889 1.174044,-1.69333 0.835378,-0.56445 1.964267,-0.56445 1.174045,0 2.144889,0.6096 0.993422,0.58703 1.580444,1.78365 0.587023,1.19662 0.587023,2.91253 0,1.73849 -0.6096,3.00285 -0.6096,1.24177 -1.6256,1.87395 -0.993423,0.63218 -2.122311,0.63218 -0.925689,0 -1.738489,-0.42898 -0.8128,-0.42898 -1.332089,-1.19662 v 5.12516 h -1.670756 z m 4.4704,9.144 q 1.241778,0 2.077156,-0.92569 0.857955,-0.94826 0.857955,-3.07057 0,-1.91912 -0.745066,-2.93512 -0.745067,-1.03857 -2.122311,-1.03857 -1.286934,0 -2.099734,1.08373 -0.790222,1.06116 -0.790222,3.2512 0.04516,1.78364 0.790222,2.70933 0.745067,0.92569 2.032,0.92569 z"
       style="font-size:22.57777786px;line-height:0.80000001;fill:#e3e2db;stroke-width:0.26458332"
       id="path4058" />
    <path
       d="m 59.128543,257.57492 q -1.377245,0 -2.460978,-0.67733 -1.083733,-0.67734 -1.693333,-1.89654 -0.6096,-1.2192 -0.6096,-2.77706 0,-1.55787 0.6096,-2.77707 0.6096,-1.2192 1.693333,-1.89653 1.083733,-0.69992 2.460978,-0.69992 1.377244,0 2.460978,0.69992 1.083733,0.67733 1.693333,1.89653 0.6096,1.2192 0.6096,2.77707 0,1.55786 -0.6096,2.77706 -0.6096,1.2192 -1.693333,1.89654 -1.083734,0.67733 -2.460978,0.67733 z m 0,-1.35467 q 0.880533,0 1.557867,-0.51929 0.699911,-0.51929 1.083733,-1.4224 0.4064,-0.92569 0.4064,-2.07715 0,-1.76107 -0.857956,-2.86738 -0.857955,-1.12889 -2.190044,-1.12889 -1.332089,0 -2.190045,1.12889 -0.857955,1.10631 -0.857955,2.86738 0,1.15146 0.383822,2.07715 0.4064,0.90311 1.083733,1.4224 0.699912,0.51929 1.580445,0.51929 z"
       style="font-size:22.57777786px;line-height:0.80000001;fill:#e3e2db;stroke-width:0.26458332"
       id="path4060" />
    <path
       d="m 74.391121,249.22114 v 0.0226 q -0.654756,-0.6096 -1.106311,-0.8128 -0.428978,-0.2032 -1.016,-0.2032 -0.8128,0 -1.535289,0.4064 -0.722489,0.4064 -1.174045,1.24178 -0.451555,0.8128 -0.451555,2.05457 v 5.4864 h -1.648178 v -10.34062 h 1.693333 l -0.04515,1.89654 q 0.428977,-1.016 1.309511,-1.58045 0.903111,-0.56444 1.964267,-0.56444 1.648177,0 2.731911,1.12889 z m 0,0.0226 q 0.158044,0.13547 0.06773,0.11289 -0.06773,-0.0226 -0.112889,-0.0452 z m -0.248356,0.0677 q 0,-0.0677 0.06773,-0.0452 0.06773,0 0.135466,0.0452 l -0.04516,0.11289 -0.158045,-0.0903 z"
       style="font-size:22.57777786px;line-height:0.80000001;fill:#e3e2db;stroke-width:0.26458332"
       id="path4062" />
    <path
       d="m 86.086412,256.44603 q -1.490134,1.10631 -3.273778,1.10631 -1.715911,0 -2.4384,-1.03858 -0.699911,-1.03857 -0.699911,-3.38666 0,-0.38383 0.04515,-1.33209 l 0.2032,-3.38667 h -2.280355 v -1.33209 h 2.370666 l 0.158045,-2.75449 1.806222,-0.29351 0.225778,-0.0226 0.02258,0.13547 q -0.158045,0.22578 -0.248356,0.38382 -0.06773,0.15805 -0.09031,0.49671 l -0.248356,2.05458 h 3.431823 v 1.33209 h -3.522134 l -0.2032,3.49956 q -0.04515,0.90311 -0.04515,1.19662 0,1.80622 0.4064,2.46098 0.428977,0.63217 1.354666,0.63217 0.677334,0 1.241778,-0.24835 0.564445,-0.24836 1.286933,-0.79022 z"
       style="font-size:22.57777786px;line-height:0.80000001;fill:#e3e2db;stroke-width:0.26458332"
       id="path4064" />
    <path
       d="m 93.491921,257.62007 q -2.302934,0 -3.680178,-1.39982 -1.354667,-1.39982 -1.354667,-3.95111 0,-1.69333 0.632178,-2.91253 0.632178,-1.24178 1.693333,-1.87396 1.083734,-0.65475 2.415823,-0.65475 1.873955,0 3.025422,1.24177 1.174044,1.24178 1.174044,3.6576 0,0.24836 -0.04515,0.74507 h -7.337778 q 0.09031,1.89653 1.061156,2.86738 0.970844,0.97084 2.460977,0.97084 1.6256,0 2.664178,-1.15146 l 0.903111,0.88053 q -1.309511,1.58044 -3.612444,1.58044 z m 2.257778,-6.41208 q 0,-1.44498 -0.745067,-2.28036 -0.722489,-0.85796 -1.919111,-0.85796 -1.128889,0 -1.964267,0.79023 -0.835378,0.79022 -1.038578,2.34809 z"
       style="font-size:22.57777786px;line-height:0.80000001;fill:#e3e2db;stroke-width:0.26458332"
       id="path4066" />
    <path
       d="m 104.01316,257.64265 q -0.54186,0 -0.92569,-0.38382 -0.38382,-0.38382 -0.38382,-0.90311 0,-0.51929 0.38382,-0.90311 0.38383,-0.38382 0.92569,-0.38382 0.51929,0 0.90311,0.38382 0.38383,0.38382 0.38383,0.90311 0,0.51929 -0.38383,0.90311 -0.38382,0.38382 -0.90311,0.38382 z"
       style="font-size:22.57777786px;line-height:0.80000001;fill:#e3e2db;stroke-width:0.26458332"
       id="path4068" />
  </g>
  <g
     aria-label=" la"
     transform="rotate(-43.497981)"
     style="font-style:normal;font-variant:normal;font-weight:normal;font-stretch:normal;font-size:22.57777786px;line-height:0.80000001;font-family:inconsolata;-inkscape-font-specification:inconsolata;letter-spacing:0px;word-spacing:0px;fill:#e3e2db;fill-opacity:1;stroke:none;stroke-width:0.26458332"
     id="text953-0">
    <path
       d="m 81.058999,240.22731 v -1.30951 h 3.048 v -12.3952 h -2.912533 v -1.30951 h 4.560711 v 13.70471 h 3.025422 v 1.30951 z"
       style="font-size:22.57777786px;line-height:0.80000001;fill:#e3e2db;stroke-width:0.26458332"
       id="path4035" />
    <path
       d="m 96.073221,229.68349 q 2.212622,0 3.364089,1.15146 1.17404,1.15147 1.17404,3.90596 v 5.4864 h -1.761062 v -1.58044 q -0.948267,1.8288 -3.522134,1.8288 -1.715911,0 -2.686755,-0.76765 -0.970845,-0.79022 -0.970845,-2.07715 0,-1.08374 0.699912,-1.89654 0.699911,-0.8128 1.873955,-1.24178 1.196622,-0.45155 2.619022,-0.45155 1.286934,0 2.325511,0.13547 -0.135466,-1.73849 -0.925688,-2.4384 -0.767645,-0.72249 -2.302934,-0.72249 -0.767644,0 -1.490133,0.29351 -0.699911,0.29351 -1.286933,0.85795 l -0.790223,-1.03857 q 1.444978,-1.44498 3.680178,-1.44498 z m -0.587022,9.5504 q 1.670755,0 2.6416,-0.97085 0.970844,-0.99342 1.061155,-2.8448 -1.016,-0.15804 -2.190044,-0.15804 -1.715911,0 -2.709333,0.56444 -0.993423,0.56445 -0.993423,1.71591 0,1.69334 2.190045,1.69334 z"
       style="font-size:22.57777786px;line-height:0.80000001;fill:#e3e2db;stroke-width:0.26458332"
       id="path4037" />
  </g>
</svg>
